<mxfile host="Electron" modified="2024-03-17T11:58:06.028Z" agent="Mozilla/5.0 (X11; Linux x86_64) AppleWebKit/537.36 (KHTML, like Gecko) draw.io/23.1.5 Chrome/120.0.6099.109 Electron/28.1.0 Safari/537.36" etag="iYT5vAexI3kFpqBN0TWC" version="23.1.5" type="device">
  <diagram name="Page-1" id="mUwUTBw5uXBrBGNtByab">
    <mxGraphModel dx="350" dy="209" grid="1" gridSize="10" guides="1" tooltips="1" connect="1" arrows="1" fold="1" page="1" pageScale="1" pageWidth="850" pageHeight="1100" math="0" shadow="0">
      <root>
        <mxCell id="0" />
        <mxCell id="1" parent="0" />
        <mxCell id="wIFEEbzB2rkRxjZBOVmE-1" value="" style="rounded=0;whiteSpace=wrap;html=1;" vertex="1" parent="1">
          <mxGeometry x="200" y="160" width="160" height="90" as="geometry" />
        </mxCell>
        <mxCell id="wIFEEbzB2rkRxjZBOVmE-2" value="" style="rounded=0;whiteSpace=wrap;html=1;" vertex="1" parent="1">
          <mxGeometry x="200" y="160" width="160" height="10" as="geometry" />
        </mxCell>
        <mxCell id="wIFEEbzB2rkRxjZBOVmE-3" value="Title overlaps" style="text;html=1;align=left;verticalAlign=middle;whiteSpace=wrap;rounded=0;" vertex="1" parent="1">
          <mxGeometry x="395" y="190" width="115" height="30" as="geometry" />
        </mxCell>
        <mxCell id="wIFEEbzB2rkRxjZBOVmE-5" value="" style="rounded=0;whiteSpace=wrap;html=1;" vertex="1" parent="1">
          <mxGeometry x="200" y="320" width="160" height="90" as="geometry" />
        </mxCell>
        <mxCell id="wIFEEbzB2rkRxjZBOVmE-6" value="" style="rounded=0;whiteSpace=wrap;html=1;" vertex="1" parent="1">
          <mxGeometry x="200" y="320" width="160" height="10" as="geometry" />
        </mxCell>
        <mxCell id="wIFEEbzB2rkRxjZBOVmE-8" value="" style="rounded=0;whiteSpace=wrap;html=1;fillColor=none;" vertex="1" parent="1">
          <mxGeometry x="208.89" y="330" width="142.22" height="80" as="geometry" />
        </mxCell>
        <mxCell id="wIFEEbzB2rkRxjZBOVmE-9" value="Game is cropped" style="text;html=1;align=left;verticalAlign=middle;whiteSpace=wrap;rounded=0;" vertex="1" parent="1">
          <mxGeometry x="395" y="355" width="115" height="30" as="geometry" />
        </mxCell>
        <mxCell id="wIFEEbzB2rkRxjZBOVmE-10" value="" style="rounded=0;whiteSpace=wrap;html=1;" vertex="1" parent="1">
          <mxGeometry x="200" y="490" width="160" height="90" as="geometry" />
        </mxCell>
        <mxCell id="wIFEEbzB2rkRxjZBOVmE-11" value="" style="rounded=0;whiteSpace=wrap;html=1;" vertex="1" parent="1">
          <mxGeometry x="200" y="485" width="160" height="5" as="geometry" />
        </mxCell>
        <mxCell id="wIFEEbzB2rkRxjZBOVmE-12" value="Change window ratio" style="text;html=1;align=left;verticalAlign=middle;whiteSpace=wrap;rounded=0;" vertex="1" parent="1">
          <mxGeometry x="395" y="520" width="115" height="30" as="geometry" />
        </mxCell>
        <mxCell id="wIFEEbzB2rkRxjZBOVmE-13" value="title.h" style="text;html=1;align=right;verticalAlign=middle;whiteSpace=wrap;rounded=0;" vertex="1" parent="1">
          <mxGeometry x="140" y="480" width="60" height="10" as="geometry" />
        </mxCell>
        <mxCell id="wIFEEbzB2rkRxjZBOVmE-14" value="content.h" style="text;html=1;align=right;verticalAlign=middle;whiteSpace=wrap;rounded=0;" vertex="1" parent="1">
          <mxGeometry x="140" y="520" width="60" height="30" as="geometry" />
        </mxCell>
        <mxCell id="wIFEEbzB2rkRxjZBOVmE-15" value="16" style="text;html=1;align=center;verticalAlign=middle;whiteSpace=wrap;rounded=0;" vertex="1" parent="1">
          <mxGeometry x="250" y="570" width="60" height="10" as="geometry" />
        </mxCell>
        <mxCell id="wIFEEbzB2rkRxjZBOVmE-16" value="9" style="text;html=1;align=center;verticalAlign=middle;whiteSpace=wrap;rounded=0;" vertex="1" parent="1">
          <mxGeometry x="200" y="530" width="10" height="10" as="geometry" />
        </mxCell>
        <mxCell id="wIFEEbzB2rkRxjZBOVmE-17" value="16" style="text;html=1;align=center;verticalAlign=middle;whiteSpace=wrap;rounded=0;" vertex="1" parent="1">
          <mxGeometry x="250" y="580" width="60" height="10" as="geometry" />
        </mxCell>
        <mxCell id="wIFEEbzB2rkRxjZBOVmE-18" value="9.5" style="text;html=1;align=left;verticalAlign=middle;whiteSpace=wrap;rounded=0;rotation=0;" vertex="1" parent="1">
          <mxGeometry x="360" y="520" width="20" height="20" as="geometry" />
        </mxCell>
        <mxCell id="wIFEEbzB2rkRxjZBOVmE-19" value="content.w / content.h = 16 / 9" style="text;html=1;align=left;verticalAlign=middle;whiteSpace=wrap;rounded=0;" vertex="1" parent="1">
          <mxGeometry x="148.89" y="620" width="301.11" height="30" as="geometry" />
        </mxCell>
        <mxCell id="wIFEEbzB2rkRxjZBOVmE-20" value="content.w / (content.h + title.h) = 16 / x" style="text;html=1;align=left;verticalAlign=middle;whiteSpace=wrap;rounded=0;" vertex="1" parent="1">
          <mxGeometry x="148.89" y="650" width="271.11" height="30" as="geometry" />
        </mxCell>
        <mxCell id="wIFEEbzB2rkRxjZBOVmE-21" value="x = 16 / (content.w / (content.h + title.h))" style="text;html=1;align=left;verticalAlign=middle;whiteSpace=wrap;rounded=0;" vertex="1" parent="1">
          <mxGeometry x="148.89" y="670" width="220" height="30" as="geometry" />
        </mxCell>
        <mxCell id="wIFEEbzB2rkRxjZBOVmE-22" value="(content.h + x) / content.w = 16 / 9.5" style="text;html=1;align=left;verticalAlign=middle;whiteSpace=wrap;rounded=0;" vertex="1" parent="1">
          <mxGeometry x="400" y="650" width="271.11" height="30" as="geometry" />
        </mxCell>
        <mxCell id="wIFEEbzB2rkRxjZBOVmE-23" value="content.h + x = (16 * content.w) / 9.5 =&lt;br&gt;x = (16 * content.w) / 9.5 - content.h" style="text;html=1;align=left;verticalAlign=middle;whiteSpace=wrap;rounded=0;" vertex="1" parent="1">
          <mxGeometry x="400" y="680" width="271.11" height="30" as="geometry" />
        </mxCell>
        <mxCell id="wIFEEbzB2rkRxjZBOVmE-26" value="x = 16 * (content.h + title.h)&amp;nbsp;/ content.w" style="text;html=1;align=left;verticalAlign=middle;whiteSpace=wrap;rounded=0;" vertex="1" parent="1">
          <mxGeometry x="148.89" y="690" width="240" height="30" as="geometry" />
        </mxCell>
        <mxCell id="wIFEEbzB2rkRxjZBOVmE-27" value="x = 16 * (content.w * 9 / 16 + title.h)&amp;nbsp;/ content.w" style="text;html=1;align=left;verticalAlign=middle;whiteSpace=wrap;rounded=0;" vertex="1" parent="1">
          <mxGeometry x="148.89" y="710" width="251.11" height="30" as="geometry" />
        </mxCell>
      </root>
    </mxGraphModel>
  </diagram>
</mxfile>
